<svg width="195" height="195" viewBox="0 0 195 195" fill="none" xmlns="http://www.w3.org/2000/svg">
<g clip-path="url(#clip0_4111_1047)">
<path d="M166.657 0.348999H28.3427C12.8822 0.348999 0.348999 12.8822 0.348999 28.3427V166.657C0.348999 182.118 12.8822 194.651 28.3427 194.651H166.657C182.118 194.651 194.651 182.118 194.651 166.657V28.3427C194.651 12.8822 182.118 0.348999 166.657 0.348999Z" stroke="#048C80" stroke-miterlimit="10"/>
<path d="M84.6372 27.7076H109.714L97.5558 97.4163L84.6372 27.7076Z" fill="url(#paint0_linear_4111_1047)"/>
<path d="M132.752 35.8734L151.889 52.0792L97.5559 97.4164L132.752 35.8734Z" fill="url(#paint1_linear_4111_1047)"/>
<path d="M164.194 73.2053L168.311 97.9398L97.5559 97.4163L164.194 73.2053Z" fill="url(#paint2_linear_4111_1047)"/>
<path d="M164.047 122.011L151.205 143.549L97.5559 97.4163L164.047 122.011Z" fill="url(#paint3_linear_4111_1047)"/>
<path d="M132.389 159.162L108.667 167.292L97.5559 97.4163L132.389 159.162Z" fill="url(#paint4_linear_4111_1047)"/>
<path d="M84.2255 167.041L60.866 157.912L97.5558 97.4163L84.2255 167.041Z" fill="url(#paint5_linear_4111_1047)"/>
<path d="M42.3779 141.923L30.4574 119.862L97.5558 97.4163L42.3779 141.923Z" fill="url(#paint6_linear_4111_1047)"/>
<path d="M26.6886 95.7064L31.8463 71.1674L97.5558 97.4163L26.6886 95.7064Z" fill="url(#paint7_linear_4111_1047)"/>
<path d="M44.5834 50.2995L64.3835 34.9172L97.5558 97.4163L44.5834 50.2995Z" fill="url(#paint8_linear_4111_1047)"/>
</g>
<defs>
<linearGradient id="paint0_linear_4111_1047" x1="109.714" y1="27.7076" x2="58.8155" y2="40.9781" gradientUnits="userSpaceOnUse">
<stop stop-color="#AAD9D1"/>
<stop offset="1" stop-color="#017373"/>
</linearGradient>
<linearGradient id="paint1_linear_4111_1047" x1="151.889" y1="35.8734" x2="68.3252" y2="89.3438" gradientUnits="userSpaceOnUse">
<stop stop-color="#AAD9D1"/>
<stop offset="1" stop-color="#017373"/>
</linearGradient>
<linearGradient id="paint2_linear_4111_1047" x1="168.311" y1="73.2053" x2="139.365" y2="133.221" gradientUnits="userSpaceOnUse">
<stop stop-color="#AAD9D1"/>
<stop offset="1" stop-color="#017373"/>
</linearGradient>
<linearGradient id="paint3_linear_4111_1047" x1="164.047" y1="97.4163" x2="95.1249" y2="169.414" gradientUnits="userSpaceOnUse">
<stop stop-color="#AAD9D1"/>
<stop offset="1" stop-color="#017373"/>
</linearGradient>
<linearGradient id="paint4_linear_4111_1047" x1="132.389" y1="97.4163" x2="65.5997" y2="121.548" gradientUnits="userSpaceOnUse">
<stop stop-color="#AAD9D1"/>
<stop offset="1" stop-color="#017373"/>
</linearGradient>
<linearGradient id="paint5_linear_4111_1047" x1="97.5558" y1="97.4163" x2="28.148" y2="123.925" gradientUnits="userSpaceOnUse">
<stop stop-color="#AAD9D1"/>
<stop offset="1" stop-color="#017373"/>
</linearGradient>
<linearGradient id="paint6_linear_4111_1047" x1="97.5558" y1="97.4163" x2="31.2602" y2="169.856" gradientUnits="userSpaceOnUse">
<stop stop-color="#AAD9D1"/>
<stop offset="1" stop-color="#017373"/>
</linearGradient>
<linearGradient id="paint7_linear_4111_1047" x1="97.5558" y1="71.1674" x2="65.7437" y2="133.416" gradientUnits="userSpaceOnUse">
<stop stop-color="#AAD9D1"/>
<stop offset="1" stop-color="#017373"/>
</linearGradient>
<linearGradient id="paint8_linear_4111_1047" x1="97.5558" y1="34.9172" x2="14.1878" y2="86.1303" gradientUnits="userSpaceOnUse">
<stop stop-color="#AAD9D1"/>
<stop offset="1" stop-color="#017373"/>
</linearGradient>
<clipPath id="clip0_4111_1047">
<rect width="195" height="195" fill="white"/>
</clipPath>
</defs>
</svg>
