<svg width="81" height="16" viewBox="0 0 81 16" fill="none" xmlns="http://www.w3.org/2000/svg">
<g clip-path="url(#clip0_6031_146)">
<path fill-rule="evenodd" clip-rule="evenodd" d="M10.3224 4.67412C9.66458 4.2346 8.89122 4 8.1001 4V0C9.68234 0 11.2291 0.469192 12.5447 1.34824C13.8603 2.22729 14.8856 3.47672 15.4911 4.93852C16.0966 6.40032 16.2551 8.00888 15.9464 9.56072C15.6377 11.1126 14.8758 12.538 13.7569 13.6568C12.6381 14.7757 11.2127 15.5376 9.66082 15.8463C8.10898 16.155 6.50042 15.9965 5.03862 15.391C3.57682 14.7855 2.32739 13.7602 1.44834 12.4446C0.56929 11.129 0.100098 9.58224 0.100098 8H4.1001C4.1001 8.79112 4.3347 9.56448 4.77422 10.2223C5.21374 10.8801 5.83846 11.3928 6.56938 11.6955C7.30026 11.9983 8.10454 12.0775 8.88046 11.9231C9.65638 11.7688 10.3691 11.3878 10.9285 10.8284C11.4879 10.269 11.8689 9.55628 12.0232 8.78036C12.1776 8.00444 12.0984 7.20016 11.7956 6.46928C11.4929 5.73836 10.9802 5.11364 10.3224 4.67412Z" fill="#AAD9D1"/>
<path fill-rule="evenodd" clip-rule="evenodd" d="M4.1001 2.11397e-06C4.1001 0.52529 3.99664 1.04543 3.79562 1.53074C3.5946 2.01604 3.29996 2.45699 2.92852 2.82843C2.55709 3.19987 2.11614 3.4945 1.63083 3.69552C1.14553 3.89654 0.625383 4 0.100098 4L0.100098 8C1.15067 8 2.19096 7.79308 3.16157 7.39104C4.13218 6.989 5.0141 6.39972 5.75694 5.65684C6.49982 4.914 7.0891 4.03208 7.49114 3.06147C7.89318 2.09086 8.1001 1.05057 8.1001 0L4.1001 2.11397e-06Z" fill="#AAD9D1"/>
<path d="M50.3478 5.78101H48.407V11.9459H50.3478V5.78101Z" fill="#AAD9D1"/>
<path d="M48.6228 4.62669C48.8256 4.82965 49.0792 4.93113 49.3836 4.93113C49.688 4.93113 49.9376 4.82965 50.132 4.62669C50.3268 4.41529 50.424 4.16157 50.424 3.86559C50.424 3.56116 50.3268 3.30744 50.132 3.10449C49.9376 2.90152 49.688 2.80005 49.3836 2.80005C49.0792 2.80005 48.8256 2.90152 48.6228 3.10449C48.428 3.30744 48.3308 3.56116 48.3308 3.86559C48.3308 4.16157 48.428 4.41529 48.6228 4.62669Z" fill="#AAD9D1"/>
<path d="M20.5625 11.9459V2.99023H22.5541V10.1954H26.5245V11.9459H20.5625Z" fill="#AAD9D1"/>
<path fill-rule="evenodd" clip-rule="evenodd" d="M30.111 12.0855C29.4768 12.0855 28.9017 11.946 28.3859 11.6669C27.8785 11.3794 27.4768 10.9904 27.1808 10.4998C26.8848 10.0094 26.7368 9.45968 26.7368 8.8508C26.7368 8.24192 26.8848 7.69648 27.1808 7.21444C27.4768 6.7324 27.8785 6.35184 28.3859 6.0728C28.8933 5.78524 29.4683 5.64148 30.111 5.64148C30.7537 5.64148 31.3288 5.78104 31.8362 6.06008C32.3436 6.33916 32.7453 6.72396 33.0413 7.21444C33.3373 7.69648 33.4853 8.24192 33.4853 8.8508C33.4853 9.45968 33.3373 10.0094 33.0413 10.4998C32.7453 10.9904 32.3436 11.3794 31.8362 11.6669C31.3288 11.946 30.7537 12.0855 30.111 12.0855ZM30.111 10.3223C30.3901 10.3223 30.6353 10.2631 30.8468 10.1447C31.0582 10.0178 31.2189 9.84448 31.3288 9.6246C31.4472 9.39628 31.5064 9.13832 31.5064 8.8508C31.5064 8.56328 31.4472 8.3138 31.3288 8.1024C31.2104 7.88252 31.0455 7.7134 30.8341 7.595C30.6311 7.46812 30.3901 7.40472 30.111 7.40472C29.8404 7.40472 29.5994 7.46812 29.388 7.595C29.1766 7.7134 29.0117 7.88252 28.8933 8.1024C28.7749 8.32228 28.7157 8.57596 28.7157 8.86348C28.7157 9.14256 28.7749 9.39628 28.8933 9.6246C29.0117 9.84448 29.1766 10.0178 29.388 10.1447C29.5994 10.2631 29.8404 10.3223 30.111 10.3223Z" fill="#AAD9D1"/>
<path fill-rule="evenodd" clip-rule="evenodd" d="M35.0224 14.3561C35.5383 14.5929 36.1345 14.7113 36.811 14.7113C37.4706 14.7113 38.0584 14.5802 38.5742 14.3181C39.0901 14.0559 39.496 13.6923 39.792 13.2272C40.088 12.7621 40.2362 12.2124 40.2362 11.5781V5.78106H38.3332V6.19525C38.1917 6.07613 38.031 5.97613 37.8512 5.89521C37.5214 5.73453 37.145 5.65417 36.7222 5.65417C36.1556 5.65417 35.6524 5.78949 35.2127 6.06009C34.7729 6.32225 34.4262 6.68589 34.1725 7.15101C33.9188 7.60769 33.792 8.12354 33.792 8.69862C33.792 9.26522 33.9188 9.78105 34.1725 10.2462C34.4262 10.7113 34.7729 11.0792 35.2127 11.3498C35.6524 11.6204 36.1556 11.7557 36.7222 11.7557C37.1366 11.7557 37.5129 11.6754 37.8512 11.5147C38.015 11.4369 38.163 11.3451 38.2952 11.2395V11.6289C38.2952 12.0601 38.1556 12.3942 37.8766 12.631C37.606 12.8678 37.2296 12.9861 36.7476 12.9861C36.3586 12.9861 36.0246 12.9185 35.7455 12.7832C35.4749 12.6479 35.2296 12.4491 35.0097 12.187L33.8174 13.3794C34.1133 13.8022 34.515 14.1278 35.0224 14.3561ZM37.7878 9.85293C37.5932 9.97133 37.3607 10.0305 37.0901 10.0305C36.8195 10.0305 36.5827 9.97133 36.3797 9.85293C36.1852 9.73453 36.033 9.57385 35.9231 9.37089C35.8131 9.15949 35.7582 8.93538 35.7582 8.69862C35.7582 8.4449 35.8131 8.21657 35.9231 8.01361C36.033 7.81065 36.1894 7.64997 36.3924 7.53157C36.5954 7.41317 36.8279 7.35397 37.0901 7.35397C37.3607 7.35397 37.5932 7.41317 37.7878 7.53157C37.9907 7.64997 38.1429 7.81065 38.2444 8.01361C38.3544 8.21657 38.4093 8.4449 38.4093 8.69862C38.4093 8.9523 38.3544 9.18061 38.2444 9.38357C38.1429 9.57809 37.9907 9.73453 37.7878 9.85293Z" fill="#AAD9D1"/>
<path fill-rule="evenodd" clip-rule="evenodd" d="M44.3204 12.0855C43.686 12.0855 43.1108 11.946 42.5952 11.6669C42.0876 11.3794 41.686 10.9904 41.39 10.4998C41.094 10.0094 40.946 9.45968 40.946 8.8508C40.946 8.24192 41.094 7.69648 41.39 7.21444C41.686 6.7324 42.0876 6.35184 42.5952 6.0728C43.1024 5.78524 43.6776 5.64148 44.3204 5.64148C44.9628 5.64148 45.538 5.78104 46.0452 6.06008C46.5528 6.33916 46.9544 6.72396 47.2504 7.21444C47.5464 7.69648 47.6944 8.24192 47.6944 8.8508C47.6944 9.45968 47.5464 10.0094 47.2504 10.4998C46.9544 10.9904 46.5528 11.3794 46.0452 11.6669C45.538 11.946 44.9628 12.0855 44.3204 12.0855ZM44.3204 10.3223C44.5992 10.3223 44.8444 10.2631 45.056 10.1447C45.2672 10.0178 45.428 9.84448 45.538 9.6246C45.6564 9.39628 45.7156 9.13832 45.7156 8.8508C45.7156 8.56328 45.6564 8.3138 45.538 8.1024C45.4196 7.88252 45.2548 7.7134 45.0432 7.595C44.8404 7.46812 44.5992 7.40472 44.3204 7.40472C44.0496 7.40472 43.8084 7.46812 43.5972 7.595C43.3856 7.7134 43.2208 7.88252 43.1024 8.1024C42.984 8.32228 42.9248 8.57596 42.9248 8.86348C42.9248 9.14256 42.984 9.39628 43.1024 9.6246C43.2208 9.84448 43.3856 10.0178 43.5972 10.1447C43.8084 10.2631 44.0496 10.3223 44.3204 10.3223Z" fill="#AAD9D1"/>
<path fill-rule="evenodd" clip-rule="evenodd" d="M55.0125 12.0728C54.5985 12.0728 54.2177 11.9925 53.8709 11.8318C53.6885 11.7473 53.5237 11.6463 53.3765 11.5289V14.5464H51.4609V5.78106H53.4017V6.20653C53.5425 6.09137 53.6989 5.99181 53.8709 5.90789C54.2177 5.73873 54.5985 5.65417 55.0125 5.65417C55.5961 5.65417 56.1121 5.79373 56.5601 6.07281C57.0169 6.35185 57.3721 6.73241 57.6257 7.21445C57.8881 7.69649 58.0189 8.24617 58.0189 8.86349C58.0189 9.48085 57.8881 10.0305 57.6257 10.5126C57.3721 10.9946 57.0169 11.3751 56.5601 11.6542C56.1121 11.9333 55.5961 12.0728 55.0125 12.0728ZM54.6577 10.3223C54.9365 10.3223 55.1777 10.2589 55.3805 10.132C55.5921 10.0052 55.7569 9.83177 55.8753 9.61193C55.9937 9.39205 56.0529 9.14257 56.0529 8.86349C56.0529 8.57597 55.9937 8.32229 55.8753 8.10241C55.7569 7.88253 55.5921 7.71341 55.3805 7.59501C55.1777 7.46813 54.9409 7.40473 54.6701 7.40473C54.3997 7.40473 54.1585 7.46813 53.9473 7.59501C53.7441 7.71341 53.5837 7.88253 53.4653 8.10241C53.3469 8.32229 53.2877 8.57597 53.2877 8.86349C53.2877 9.14257 53.3425 9.39205 53.4525 9.61193C53.5709 9.83177 53.7357 10.0052 53.9473 10.132C54.1585 10.2589 54.3953 10.3223 54.6577 10.3223Z" fill="#AAD9D1"/>
<path d="M59.9184 11.9586C60.2736 12.0516 60.6328 12.0981 60.9964 12.0981C61.766 12.0981 62.3748 11.9206 62.8232 11.5654C63.2796 11.2102 63.508 10.7324 63.508 10.132C63.508 9.74295 63.4364 9.43003 63.2924 9.19327C63.1488 8.94803 62.9628 8.75351 62.7344 8.60975C62.506 8.46599 62.2648 8.35179 62.0112 8.26723C61.7576 8.18267 61.5164 8.11079 61.2884 8.05159C61.06 7.99239 60.874 7.92475 60.73 7.84863C60.5864 7.77251 60.5144 7.67103 60.5144 7.54419C60.5144 7.42579 60.5696 7.33699 60.6792 7.27779C60.7892 7.21015 60.954 7.17635 61.174 7.17635C61.4024 7.17635 61.6348 7.22283 61.8716 7.31587C62.1168 7.40887 62.3368 7.56959 62.5312 7.79791L63.6348 6.68163C63.356 6.32643 62.9924 6.06003 62.544 5.88247C62.1044 5.69643 61.6224 5.60339 61.098 5.60339C60.5992 5.60339 60.1636 5.68795 59.7916 5.85707C59.4192 6.02623 59.1316 6.25879 58.9288 6.55475C58.726 6.84227 58.6244 7.18479 58.6244 7.58227C58.6244 7.95435 58.6964 8.26303 58.84 8.50827C58.9836 8.74503 59.17 8.93111 59.398 9.06639C59.6264 9.20171 59.8676 9.30743 60.1212 9.38351C60.3748 9.45963 60.616 9.53151 60.8444 9.59919C61.0724 9.65839 61.2588 9.73027 61.4024 9.81483C61.5548 9.89095 61.6308 10.0051 61.6308 10.1573C61.6308 10.2757 61.5672 10.3687 61.4404 10.4364C61.322 10.504 61.1488 10.5379 60.9204 10.5379C60.5904 10.5379 60.286 10.4787 60.0072 10.3603C59.728 10.2334 59.4868 10.0601 59.284 9.84019L58.1804 10.9565C58.392 11.1848 58.6456 11.3878 58.9416 11.5654C59.246 11.7345 59.5716 11.8656 59.9184 11.9586Z" fill="#AAD9D1"/>
<path d="M67.0473 12.0854C66.4809 12.0854 65.9777 11.9713 65.5381 11.743C65.1065 11.5062 64.7685 11.1848 64.5233 10.7789C64.2777 10.3645 64.1553 9.89097 64.1553 9.35817V5.78101H66.0961V9.33281C66.0961 9.54421 66.1297 9.72605 66.1977 9.87825C66.2737 10.0305 66.3837 10.1489 66.5273 10.2334C66.6713 10.318 66.8445 10.3603 67.0473 10.3603C67.3349 10.3603 67.5633 10.2715 67.7325 10.0939C67.9017 9.90785 67.9861 9.65417 67.9861 9.33281V5.78101H69.9269V9.34549C69.9269 9.88673 69.8045 10.3645 69.5589 10.7789C69.3137 11.1848 68.9757 11.5062 68.5441 11.743C68.1129 11.9713 67.6141 12.0854 67.0473 12.0854Z" fill="#AAD9D1"/>
<path d="M72.8324 5.78106H70.8916V11.946H72.8324V8.34342C72.8324 8.13202 72.8748 7.95442 72.9592 7.81066C73.0524 7.6669 73.1752 7.55693 73.3272 7.48085C73.4796 7.39625 73.6528 7.35397 73.8472 7.35397C74.1264 7.35397 74.3588 7.44278 74.5448 7.62038C74.7396 7.7895 74.8368 8.03054 74.8368 8.34342V11.946H76.7776V8.34342C76.7776 8.13202 76.82 7.95442 76.9044 7.81066C76.9976 7.6669 77.12 7.55693 77.2724 7.48085C77.4244 7.39625 77.598 7.35397 77.7924 7.35397C78.0716 7.35397 78.304 7.44278 78.49 7.62038C78.6844 7.7895 78.7816 8.03054 78.7816 8.34342V11.946H80.7228V8.12777C80.7228 7.61193 80.6128 7.17218 80.3928 6.80854C80.1812 6.43642 79.8896 6.15313 79.5176 5.95865C79.154 5.75565 78.7352 5.65417 78.2616 5.65417C77.7796 5.65417 77.344 5.75989 76.9552 5.97133C76.7024 6.10601 76.4816 6.27985 76.2924 6.49281C76.116 6.27005 75.9016 6.08778 75.6484 5.94594C75.3104 5.75146 74.9256 5.65417 74.4944 5.65417C74.0376 5.65417 73.6276 5.75146 73.264 5.94594C73.1056 6.02686 72.962 6.12378 72.8324 6.2367V5.78106Z" fill="#AAD9D1"/>
</g>
<defs>
<clipPath id="clip0_6031_146">
<rect width="80.8" height="16" fill="white" transform="translate(0.100098)"/>
</clipPath>
</defs>
</svg>
