<svg width="89" height="16" viewBox="0 0 89 16" fill="none" xmlns="http://www.w3.org/2000/svg">
<g clip-path="url(#clip0_6031_133)">
<path d="M49.8418 11.8095H51.707V4.77406H49.8418V11.8095ZM49.8418 3.67693H51.707V2.00378H49.8418V3.67693Z" fill="#AAD9D1"/>
<path d="M52.9092 14.1135H54.7744V11.014H54.8016C55.1992 11.6175 55.844 12.0152 56.8312 12.0152C58.6416 12.0152 59.876 10.5752 59.876 8.29863C59.876 6.10431 58.6828 4.58203 56.8176 4.58203C55.8576 4.58203 55.1992 5.03463 54.7468 5.65175H54.7056V4.77403H52.9092V14.1135ZM56.4336 10.4655C55.3228 10.4655 54.7332 9.62891 54.7332 8.35347C54.7332 7.09175 55.1992 6.09063 56.3652 6.09063C57.5172 6.09063 57.9832 7.02319 57.9832 8.35347C57.9832 9.68375 57.38 10.4655 56.4336 10.4655Z" fill="#AAD9D1"/>
<path d="M63.5964 12.0152C65.352 12.0152 66.5588 11.1649 66.5588 9.75231C66.5588 8.10663 65.256 7.77747 64.0764 7.53063C63.0752 7.32491 62.1428 7.27003 62.1428 6.66663C62.1428 6.15919 62.6228 5.88491 63.3496 5.88491C64.1452 5.88491 64.6252 6.15919 64.7072 6.91347H66.394C66.2572 5.50091 65.2284 4.58203 63.3772 4.58203C61.7724 4.58203 60.5108 5.30891 60.5108 6.83119C60.5108 8.36719 61.7452 8.71003 63.0068 8.95691C63.9668 9.14891 64.858 9.21747 64.858 9.88947C64.858 10.3832 64.392 10.6986 63.5692 10.6986C62.7324 10.6986 62.1564 10.342 62.0332 9.53291H60.3052C60.4148 11.0278 61.5532 12.0152 63.5964 12.0152Z" fill="#AAD9D1"/>
<path d="M73.64 11.8095V4.77405H71.7748V8.83349C71.7748 9.76605 71.24 10.4243 70.3624 10.4243C69.5668 10.4243 69.1968 9.97177 69.1968 9.14893V4.77405H67.3452V9.46433C67.3452 11.0003 68.2228 12.0015 69.7864 12.0015C70.774 12.0015 71.3224 11.6312 71.8024 10.9866H71.8436V11.8095H73.64Z" fill="#AAD9D1"/>
<path d="M74.8462 11.8095H76.7114V7.72263C76.7114 6.79003 77.219 6.18663 77.9734 6.18663C78.659 6.18663 79.0566 6.59803 79.0566 7.39347V11.8095H80.9218V7.72263C80.9218 6.79003 81.4018 6.18663 82.1834 6.18663C82.8694 6.18663 83.267 6.59803 83.267 7.39347V11.8095H85.1322V7.07803C85.1322 5.54203 84.2954 4.58203 82.8142 4.58203C81.923 4.58203 81.1822 5.04831 80.7022 5.81631H80.675C80.3322 5.07575 79.619 4.58203 78.7274 4.58203C77.7538 4.58203 77.0682 5.07575 76.6842 5.72031H76.643V4.77403H74.8462V11.8095Z" fill="#AAD9D1"/>
<path d="M1.22949 11.8095H3.09463V2.00378H1.22949V11.8095Z" fill="#AAD9D1"/>
<path d="M7.65518 12.0152C9.83574 12.0152 11.3306 10.3969 11.3306 8.29863C11.3306 6.20031 9.83574 4.58203 7.65518 4.58203C5.47458 4.58203 3.97974 6.20031 3.97974 8.29863C3.97974 10.3969 5.47458 12.0152 7.65518 12.0152ZM7.65518 10.5889C6.50318 10.5889 5.8723 9.67003 5.8723 8.29863C5.8723 6.92719 6.50318 5.99463 7.65518 5.99463C8.79346 5.99463 9.43802 6.92719 9.43802 8.29863C9.43802 9.67003 8.79346 10.5889 7.65518 10.5889Z" fill="#AAD9D1"/>
<path d="M15.297 14.2095C16.3393 14.2095 17.2445 13.9626 17.8341 13.414C18.3553 12.934 18.6707 12.262 18.6707 11.2746V4.77403H16.8742V5.51463H16.8467C16.4216 4.92491 15.777 4.58203 14.8993 4.58203C13.1165 4.58203 11.8547 5.92603 11.8547 8.02431C11.8547 10.15 13.3907 11.3843 14.9542 11.3843C15.8456 11.3843 16.3805 11.0278 16.7919 10.5615H16.833V11.3295C16.833 12.2895 16.3256 12.7969 15.2696 12.7969C14.4056 12.7969 14.0079 12.454 13.857 12.0152H12.0056C12.1976 13.3866 13.377 14.2095 15.297 14.2095ZM15.2696 9.88947C14.3096 9.88947 13.6787 9.19003 13.6787 7.99691C13.6787 6.81747 14.3096 6.07691 15.2559 6.07691C16.3805 6.07691 16.929 6.95463 16.929 7.98319C16.929 9.02547 16.449 9.88947 15.2696 9.88947Z" fill="#AAD9D1"/>
<path d="M23.2042 12.0152C25.3848 12.0152 26.8797 10.3969 26.8797 8.29863C26.8797 6.20031 25.3848 4.58203 23.2042 4.58203C21.0237 4.58203 19.5288 6.20031 19.5288 8.29863C19.5288 10.3969 21.0237 12.0152 23.2042 12.0152ZM23.2042 10.5889C22.0522 10.5889 21.4214 9.67003 21.4214 8.29863C21.4214 6.92719 22.0522 5.99463 23.2042 5.99463C24.3425 5.99463 24.9871 6.92719 24.9871 8.29863C24.9871 9.67003 24.3425 10.5889 23.2042 10.5889Z" fill="#AAD9D1"/>
<path d="M85.8098 3.61904C85.8098 3.30344 86.0658 3.04761 86.3814 3.04761H87.5242C87.8398 3.04761 88.0958 3.30344 88.0958 3.61904C88.0958 3.93463 87.8398 4.19047 87.5242 4.19047H86.3814C86.0658 4.19047 85.8098 3.93463 85.8098 3.61904Z" fill="#AAD9D1"/>
<path fill-rule="evenodd" clip-rule="evenodd" d="M38.1909 0C42.609 0 46.191 3.58172 46.191 8C46.191 12.4183 42.609 16 38.1909 16C33.7726 16 30.1909 12.4183 30.1909 8C30.1909 3.58172 33.7726 0 38.1909 0ZM37.9018 0.598636C36.9891 0.727076 36.12 1.46043 35.4454 2.68696C35.2498 3.04273 35.0732 3.43578 34.9194 3.86018C35.8366 3.62967 36.8443 3.49377 37.9018 3.47275V0.598636ZM34.2432 4.05232C34.4346 3.45183 34.6686 2.89936 34.9387 2.40826C35.2731 1.80024 35.67 1.27518 36.1172 0.871908C33.6856 1.57809 31.769 3.49472 31.0628 5.92628C31.4661 5.47912 31.9911 5.08224 32.5992 4.74784C33.0903 4.47772 33.6427 4.24364 34.2432 4.05232ZM34.0511 4.72844C33.8206 5.64572 33.6847 6.65336 33.6636 7.71084H30.7895C30.918 6.79816 31.6513 5.92912 32.8779 5.25456C33.2336 5.05888 33.6267 4.88232 34.0511 4.72844ZM34.2421 7.71084C34.266 6.5568 34.4321 5.47336 34.707 4.51608C35.6643 4.2412 36.7477 4.07504 37.9018 4.05116V5.30032C37.4712 6.40248 36.5932 7.28048 35.491 7.71084H34.2421ZM33.6636 8.28916H30.7895C30.918 9.20184 31.6513 10.0708 32.8779 10.7454C33.2336 10.9411 33.6267 11.1177 34.0511 11.2716C33.8206 10.3543 33.6847 9.34664 33.6636 8.28916ZM34.707 11.4839C34.4321 10.5266 34.266 9.4432 34.2421 8.28916H35.491C36.5932 8.71952 37.4712 9.59752 37.9018 10.6997V11.9488C36.7477 11.925 35.6643 11.7588 34.707 11.4839ZM34.2432 11.9477C33.6427 11.7564 33.0903 11.5223 32.5992 11.2522C31.9911 10.9178 31.4661 10.5209 31.0628 10.0737C31.769 12.5053 33.6856 14.4219 36.1172 15.1281C35.67 14.7248 35.2731 14.1998 34.9387 13.5917C34.6686 13.1006 34.4346 12.5482 34.2432 11.9477ZM37.9018 15.4014C36.9891 15.2729 36.12 14.5396 35.4454 13.313C35.2498 12.9573 35.0732 12.5642 34.9194 12.1398C35.8366 12.3703 36.8443 12.5062 37.9018 12.5272V15.4014ZM40.2646 15.1281C40.7118 14.7248 41.1086 14.1998 41.443 13.5917C41.713 13.1006 41.9474 12.5482 42.1386 11.9477C42.739 11.7564 43.2914 11.5223 43.7826 11.2522C44.3906 10.9178 44.9158 10.5209 45.319 10.0737C44.6126 12.5053 42.6962 14.4219 40.2646 15.1281ZM41.4626 12.1398C41.3086 12.5642 41.1318 12.9573 40.9362 13.313C40.2618 14.5396 39.3927 15.2729 38.48 15.4014V12.5272C39.5375 12.5062 40.5452 12.3703 41.4626 12.1398ZM42.3306 11.2716C42.755 11.1177 43.1482 10.9411 43.5038 10.7454C44.7306 10.0709 45.4638 9.20184 45.5922 8.28916H42.7182C42.697 9.34664 42.561 10.3543 42.3306 11.2716ZM42.1398 8.28916C42.1158 9.4432 41.9498 10.5266 41.6746 11.4839C40.7175 11.7588 39.6341 11.925 38.48 11.9488V10.7006C38.9104 9.59804 39.7887 8.71964 40.8912 8.28916H42.1398ZM42.7182 7.71084H45.5922C45.4638 6.79816 44.7306 5.92912 43.5038 5.25456C43.1482 5.05888 42.755 4.88232 42.3306 4.72844C42.561 5.64572 42.697 6.65336 42.7182 7.71084ZM41.6746 4.51608C41.9498 5.47336 42.1158 6.5568 42.1398 7.71084H40.8912C39.7887 7.28036 38.9104 6.40196 38.48 5.2994V4.05116C39.6341 4.07504 40.7175 4.2412 41.6746 4.51608ZM42.1386 4.05232C42.739 4.24364 43.2914 4.47772 43.7826 4.74784C44.3906 5.08224 44.9158 5.47912 45.319 5.92628C44.6126 3.49472 42.6962 1.57809 40.2646 0.871908C40.7118 1.27518 41.1086 1.80024 41.443 2.40826C41.713 2.89936 41.9474 3.45183 42.1386 4.05232ZM38.48 0.598636C39.3927 0.727076 40.2618 1.46043 40.9362 2.68696C41.1318 3.04274 41.3086 3.43578 41.4626 3.86018C40.5452 3.62967 39.5375 3.49377 38.48 3.47275V0.598636Z" fill="#AAD9D1"/>
</g>
<defs>
<clipPath id="clip0_6031_133">
<rect width="87.2" height="16" fill="white" transform="translate(0.899902)"/>
</clipPath>
</defs>
</svg>
